<svg xmlns="http://www.w3.org/2000/svg" viewBox="0 0 270 280">
  <defs>
    <linearGradient id="g" x1="62" y1="30" x2="220" y2="244"><stop stop-color="#65e100"/><stop offset="1" stop-color="#3fbd00"/></linearGradient>
    <radialGradient id="face" cx=".45" cy=".32" r=".78"><stop stop-color="#d8ffad"/><stop offset="1" stop-color="#b8f985"/></radialGradient>
  </defs>
  <ellipse cx="138" cy="260" rx="86" ry="10" fill="#dcedd2"/>
  <path d="M58 128 20 84c43 0 76 18 104 55Z" fill="#ff4b4b"/>
  <path d="M212 128 250 84c-43 0-76 18-104 55Z" fill="#ff4b4b"/>
  <path d="M86 93c19-18 29-23 56-23h25c25 0 47 22 47 49v48c0 52-34 86-78 86s-78-34-78-86v-23c0-20 10-38 28-51Z" fill="url(#g)"/>
  <path d="M96 92 72 70c-11-10-8-29 7-35l44 43Z" fill="#65e100"/>
  <path d="M180 92l24-22c11-10 8-29-7-35l-44 43Z" fill="#65e100"/>
  <ellipse cx="138" cy="173" rx="65" ry="68" fill="url(#face)"/>
  <ellipse cx="101" cy="132" rx="28" ry="31" fill="#4b3323"/><ellipse cx="175" cy="132" rx="28" ry="31" fill="#4b3323"/>
  <circle cx="92" cy="120" r="10" fill="#fff"/><circle cx="166" cy="120" r="10" fill="#fff"/>
  <path d="M112 88c15-11 37-10 51 1M173 88c14-11 32-12 45-1" stroke="#cfff9a" stroke-width="13" stroke-linecap="round"/>
  <path d="M124 162c8 12 20 12 29 0" fill="none" stroke="#4b3323" stroke-width="11" stroke-linecap="round"/>
  <path d="M128 206h22l-11 25Z" fill="#ffc800" stroke="#4b3323" stroke-width="5" stroke-linejoin="round"/>
</svg>
