<svg xmlns="http://www.w3.org/2000/svg" viewBox="0 0 260 280">
  <defs>
    <linearGradient id="g" x1="54" y1="30" x2="212" y2="244"><stop stop-color="#65e100"/><stop offset="1" stop-color="#3fbd00"/></linearGradient>
    <radialGradient id="face" cx=".45" cy=".32" r=".78"><stop stop-color="#d8ffad"/><stop offset="1" stop-color="#b8f985"/></radialGradient>
  </defs>
  <ellipse cx="132" cy="260" rx="78" ry="10" fill="#dcedd2"/>
  <path d="M80 93c19-18 29-23 56-23h25c25 0 47 22 47 49v48c0 52-34 86-78 86s-78-34-78-86v-23c0-20 10-38 28-51Z" fill="url(#g)"/>
  <path d="M90 92 66 70c-11-10-8-29 7-35l44 43Z" fill="#65e100"/>
  <path d="M174 92l24-22c11-10 8-29-7-35l-44 43Z" fill="#65e100"/>
  <ellipse cx="132" cy="173" rx="65" ry="68" fill="url(#face)"/>
  <ellipse cx="95" cy="132" rx="27" ry="31" fill="#4b3323"/><ellipse cx="169" cy="132" rx="27" ry="31" fill="#4b3323"/>
  <circle cx="87" cy="120" r="10" fill="#fff"/><circle cx="161" cy="120" r="10" fill="#fff"/>
  <path d="M108 89c13-11 35-10 47 1M169 90c12-11 29-12 41-2" stroke="#cfff9a" stroke-width="13" stroke-linecap="round"/>
  <path d="M131 154c12 7 8 24-1 34M131 154c-4 23-27 34-45 19M131 154c5 25 31 35 50 18" fill="none" stroke="#4b3323" stroke-width="12" stroke-linecap="round"/>
  <rect x="35" y="197" width="128" height="52" rx="14" fill="#fffdf3" stroke="#d8e9cc" stroke-width="5"/>
  <path d="M55 216h54M55 232h76" stroke="#4b3323" stroke-width="7" stroke-linecap="round"/>
  <path d="M188 178 228 207" stroke="#cfff9a" stroke-width="17" stroke-linecap="round"/>
  <path d="m210 203 16-22 19 14-17 23Z" fill="#ffc800" stroke="#4b3323" stroke-width="5" stroke-linejoin="round"/>
</svg>
